<svg xmlns="http://www.w3.org/2000/svg" width="1000" height="1000">
    <style>
        #light-icon { display: inline; }
        #dark-icon { display: none; }
        @media (prefers-color-scheme: dark) {
            #light-icon { display: none; }
            #dark-icon { display: inline; }
        }
    </style>
    <g id="light-icon"><svg xmlns="http://www.w3.org/2000/svg" width="1000" height="1000"><g><g transform="matrix(7.8125,0,0,7.8125,0,0)"><svg xmlns="http://www.w3.org/2000/svg" viewBox="0 0 128 128" width="128" height="128"><rect x="0" y="0" width="128" height="128" /><rect fill="#fafafa" x="16" y="32" width="32" height="32" /><rect fill="#fafafa" x="80" y="32" width="32" height="32" /><circle cx="80" cy="48" r="12" /><circle cx="16" cy="48" r="12" /></svg></g></g></svg></g>
    <g id="dark-icon"><svg xmlns="http://www.w3.org/2000/svg" width="1000" height="1000"><g clip-path="url(#SvgjsClipPath1001)"><rect width="1000" height="1000" fill="#ffffff" /><g transform="matrix(5.46875,0,0,5.46875,150,150)"><svg xmlns="http://www.w3.org/2000/svg" viewBox="0 0 128 128" width="128" height="128"><defs><clipPath id="SvgjsClipPath1001"><rect width="1000" height="1000" x="0" y="0" rx="350" ry="350" /></clipPath></defs><rect x="0" y="0" width="128" height="128" /><rect fill="#fafafa" x="16" y="32" width="32" height="32" /><rect fill="#fafafa" x="80" y="32" width="32" height="32" /><circle cx="80" cy="48" r="12" /><circle cx="16" cy="48" r="12" /></svg></g></g></svg></g>
</svg>
